<svg width="45" height="45" viewBox="0 0 45 45" fill="none" xmlns="http://www.w3.org/2000/svg">
<path d="M6.70956 1.10447L22.5 16.8942L38.2086 1.18628C38.5556 0.816967 38.9736 0.521531 39.4376 0.317686C39.9015 0.113841 40.4018 0.00578554 40.9086 0C41.9935 0 43.034 0.430974 43.8012 1.19811C44.5683 1.96525 44.9993 3.00572 44.9993 4.09062C45.0089 4.59213 44.9158 5.09031 44.7259 5.55457C44.536 6.01883 44.2531 6.43939 43.8948 6.79042L27.9817 22.4984L43.8948 38.4109C44.569 39.0705 44.9644 39.9636 44.9993 40.9062C44.9993 41.9911 44.5683 43.0315 43.8012 43.7987C43.034 44.5658 41.9935 44.9968 40.9086 44.9968C40.3872 45.0184 39.867 44.9314 39.3811 44.7412C38.8952 44.5511 38.4541 44.262 38.0859 43.8923L22.5 28.1025L6.75047 43.8514C6.40482 44.2084 5.99189 44.4934 5.53551 44.69C5.07913 44.8866 4.58834 44.9908 4.09145 44.9968C3.00651 44.9968 1.966 44.5658 1.19883 43.7987C0.431658 43.0315 0.000665598 41.9911 0.000665598 40.9062C-0.00887205 40.4046 0.0841807 39.9065 0.274114 39.4422C0.464047 38.9779 0.746855 38.5574 1.10518 38.2063L17.0183 22.4984L1.10518 6.58589C0.430955 5.92632 0.0355994 5.03314 0.000665598 4.09062C0.000665598 3.00572 0.431658 1.96525 1.19883 1.19811C1.966 0.430974 3.00651 0 4.09145 0C5.07324 0.0122718 6.01412 0.409061 6.70956 1.10447Z" fill="#F3F4F5"/>
</svg>
