<svg width="45" height="46" viewBox="0 0 45 46" fill="none" xmlns="http://www.w3.org/2000/svg">
<path id="Burger" d="M0 3.71429C0 2.8618 0.296317 2.04424 0.823763 1.44144C1.35121 0.838648 2.06658 0.5 2.8125 0.5H42.1875C42.9334 0.5 43.6488 0.838648 44.1762 1.44144C44.7037 2.04424 45 2.8618 45 3.71429C45 4.56677 44.7037 5.38433 44.1762 5.98713C43.6488 6.58992 42.9334 6.92857 42.1875 6.92857H2.8125C2.06658 6.92857 1.35121 6.58992 0.823763 5.98713C0.296317 5.38433 0 4.56677 0 3.71429ZM0 23C0 22.1475 0.296317 21.33 0.823763 20.7272C1.35121 20.1244 2.06658 19.7857 2.8125 19.7857H42.1875C42.9334 19.7857 43.6488 20.1244 44.1762 20.7272C44.7037 21.33 45 22.1475 45 23C45 23.8525 44.7037 24.67 44.1762 25.2728C43.6488 25.8756 42.9334 26.2143 42.1875 26.2143H2.8125C2.06658 26.2143 1.35121 25.8756 0.823763 25.2728C0.296317 24.67 0 23.8525 0 23ZM2.8125 39.0714C2.06658 39.0714 1.35121 39.4101 0.823763 40.0129C0.296317 40.6157 0 41.4332 0 42.2857C0 43.1382 0.296317 43.9558 0.823763 44.5586C1.35121 45.1614 2.06658 45.5 2.8125 45.5H42.1875C42.9334 45.5 43.6488 45.1614 44.1762 44.5586C44.7037 43.9558 45 43.1382 45 42.2857C45 41.4332 44.7037 40.6157 44.1762 40.0129C43.6488 39.4101 42.9334 39.0714 42.1875 39.0714H2.8125Z" fill="#F3F4F5"/>
</svg>
