<svg width="32" height="40" viewBox="0 0 32 40" fill="none" xmlns="http://www.w3.org/2000/svg">
<path id="Up Arrow" d="M1.32606 17.7339C0.797134 17.1981 0.499999 16.4715 0.499999 15.7139C0.499999 14.9563 0.797134 14.2297 1.32606 13.6939L14.0223 0.836543C14.5514 0.300903 15.2689 -6.45569e-07 16.017 -6.78271e-07C16.7652 -7.10973e-07 17.4827 0.300903 18.0118 0.836543L30.708 13.6939C31.2219 14.2328 31.5063 14.9545 31.4999 15.7036C31.4935 16.4528 31.1967 17.1694 30.6736 17.6991C30.1505 18.2289 29.4429 18.5294 28.7031 18.5359C27.9634 18.5424 27.2507 18.2544 26.7186 17.7339L18.8384 9.99954L18.8384 37.1428C18.8384 37.9006 18.5412 38.6273 18.0121 39.1631C17.4829 39.699 16.7653 40 16.017 40C15.2688 40 14.5511 39.699 14.022 39.1631C13.4929 38.6273 13.1956 37.9006 13.1956 37.1428L13.1956 9.99954L5.31551 17.7339C4.78642 18.2696 4.06892 18.5705 3.32078 18.5705C2.57265 18.5705 1.85515 18.2696 1.32606 17.7339Z" fill="#0E0E0E"/>
</svg>
